<svg width="73" height="36" viewBox="0 0 73 36" fill="none" xmlns="http://www.w3.org/2000/svg">
<path d="M16.6444 12.2664L16.5507 14.2234C16.2538 14.1843 15.9725 14.1648 15.7069 14.1648C15.1522 14.1648 14.703 14.2195 14.3593 14.3289C14.0155 14.4382 13.7538 14.6257 13.5741 14.8914C13.4022 15.157 13.285 15.4617 13.2225 15.8054C13.1679 16.1414 13.1405 16.5945 13.1405 17.1648C13.1405 17.4851 13.1522 17.9539 13.1757 18.5711C13.2069 19.1882 13.2225 19.6297 13.2225 19.8953V25.4148H10.9139V12.5593H13.0116L13.246 14.0007C13.4882 13.4382 13.8554 13.0047 14.3475 12.7C14.8397 12.3875 15.4296 12.2312 16.1171 12.2312C16.2889 12.2312 16.4647 12.2429 16.6444 12.2664ZM29.1718 18.8054C28.2343 18.8992 27.6522 18.9539 27.4257 18.9695H21.0389C21.0468 20.1023 21.078 21.3445 21.1327 22.6961C21.1718 23.2195 21.3944 23.5672 21.8007 23.739C22.2147 23.9031 23.0155 23.9851 24.203 23.9851C24.6483 23.9851 25.0311 23.9695 25.3514 23.9382C25.6718 23.8992 25.9296 23.8367 26.1249 23.7507C26.328 23.657 26.4843 23.5711 26.5936 23.4929C26.7108 23.407 26.7968 23.2781 26.8514 23.1062C26.9061 22.9265 26.9413 22.7781 26.9569 22.6609C26.9725 22.5359 26.9882 22.3523 27.0038 22.1101C27.0194 21.8601 27.0389 21.657 27.0624 21.5007L28.8554 21.8289C28.8397 22.3757 28.8007 22.8406 28.7382 23.2234C28.6757 23.5984 28.5702 23.9304 28.4218 24.2195C28.2733 24.5086 28.0975 24.739 27.8944 24.9109C27.6913 25.075 27.4179 25.2117 27.0741 25.3211C26.7304 25.4304 26.3514 25.5007 25.9374 25.532C25.5233 25.5711 25.0116 25.5906 24.4022 25.5906C23.621 25.5906 22.9413 25.5437 22.3632 25.45C21.785 25.364 21.2889 25.2547 20.8749 25.1218C20.4686 24.989 20.1327 24.7742 19.8671 24.4773C19.6014 24.1726 19.3905 23.8836 19.2343 23.6101C19.0858 23.3367 18.9764 22.9343 18.9061 22.4031C18.8358 21.8718 18.7889 21.3914 18.7655 20.9617C18.7499 20.5242 18.7421 19.9226 18.7421 19.157C18.7421 18.0789 18.7538 17.239 18.7772 16.6375C18.8085 16.0359 18.8866 15.4343 19.0116 14.8328C19.1366 14.2234 19.3046 13.782 19.5155 13.5086C19.7264 13.2351 20.0389 12.9812 20.453 12.7468C20.8671 12.5125 21.3554 12.364 21.9179 12.3015C22.4804 12.2312 23.1952 12.1961 24.0624 12.1961C24.6639 12.1961 25.1835 12.2156 25.621 12.2547C26.0585 12.2859 26.4608 12.3562 26.828 12.4656C27.1952 12.575 27.496 12.7 27.7304 12.8406C27.9725 12.9812 28.1835 13.1882 28.3632 13.4617C28.5507 13.7351 28.6913 14.0203 28.785 14.3172C28.8866 14.6062 28.9686 14.9929 29.0311 15.4773C29.0936 15.9617 29.1327 16.4539 29.1483 16.9539C29.1639 17.4461 29.1718 18.0632 29.1718 18.8054ZM21.0507 17.739H26.8632C26.8475 16.739 26.8085 15.825 26.746 14.9968C26.7147 14.5203 26.5077 14.2039 26.1249 14.0476C25.7499 13.8836 25.0585 13.8015 24.0507 13.8015C22.9335 13.8015 22.2264 13.864 21.9296 13.989C21.7968 14.0281 21.6796 14.0984 21.578 14.2C21.4843 14.2937 21.4061 14.4304 21.3436 14.6101C21.2811 14.7898 21.2304 14.9578 21.1913 15.114C21.16 15.2703 21.1327 15.489 21.1093 15.7703C21.0936 16.0437 21.0819 16.2586 21.0741 16.4148C21.0663 16.5632 21.0585 16.7937 21.0507 17.1062C21.0507 17.4187 21.0507 17.6297 21.0507 17.739ZM34.7147 25.4148H32.4061V8.00075L34.7147 7.81325V25.4148ZM40.7968 25.4148H38.4882V12.5593H40.7968V25.4148ZM40.7968 7.59059V9.61794H38.4882V7.59059H40.7968ZM49.5975 23.7859L49.5507 25.4265C48.8944 25.5359 48.3007 25.5906 47.7694 25.5906C47.1991 25.5906 46.7264 25.5281 46.3514 25.4031C45.9843 25.2781 45.7069 25.0789 45.5194 24.8054C45.3319 24.532 45.203 24.2312 45.1327 23.9031C45.0624 23.5672 45.0272 23.1414 45.0272 22.6257V13.8718H43.2811V12.5593H45.0272V8.90309L47.3241 8.71559V12.5593H49.6913V13.8718H47.3241V21.8406C47.3241 22.6843 47.3632 23.2312 47.4413 23.4812C47.5272 23.7312 47.7538 23.8562 48.121 23.8562C48.4804 23.8562 48.9725 23.8328 49.5975 23.7859ZM62.6874 18.8054C61.7499 18.8992 61.1679 18.9539 60.9413 18.9695H54.5546C54.5624 20.1023 54.5936 21.3445 54.6483 22.6961C54.6874 23.2195 54.91 23.5672 55.3163 23.739C55.7304 23.9031 56.5311 23.9851 57.7186 23.9851C58.1639 23.9851 58.5468 23.9695 58.8671 23.9382C59.1874 23.8992 59.4452 23.8367 59.6405 23.7507C59.8436 23.657 59.9999 23.5711 60.1093 23.4929C60.2264 23.407 60.3124 23.2781 60.3671 23.1062C60.4218 22.9265 60.4569 22.7781 60.4725 22.6609C60.4882 22.5359 60.5038 22.3523 60.5194 22.1101C60.535 21.8601 60.5546 21.657 60.578 21.5007L62.371 21.8289C62.3554 22.3757 62.3163 22.8406 62.2538 23.2234C62.1913 23.5984 62.0858 23.9304 61.9374 24.2195C61.7889 24.5086 61.6132 24.739 61.41 24.9109C61.2069 25.075 60.9335 25.2117 60.5897 25.3211C60.246 25.4304 59.8671 25.5007 59.453 25.532C59.0389 25.5711 58.5272 25.5906 57.9179 25.5906C57.1366 25.5906 56.4569 25.5437 55.8788 25.45C55.3007 25.364 54.8046 25.2547 54.3905 25.1218C53.9843 24.989 53.6483 24.7742 53.3827 24.4773C53.1171 24.1726 52.9061 23.8836 52.7499 23.6101C52.6014 23.3367 52.4921 22.9343 52.4218 22.4031C52.3514 21.8718 52.3046 21.3914 52.2811 20.9617C52.2655 20.5242 52.2577 19.9226 52.2577 19.157C52.2577 18.0789 52.2694 17.239 52.2929 16.6375C52.3241 16.0359 52.4022 15.4343 52.5272 14.8328C52.6522 14.2234 52.8202 13.782 53.0311 13.5086C53.2421 13.2351 53.5546 12.9812 53.9686 12.7468C54.3827 12.5125 54.871 12.364 55.4335 12.3015C55.996 12.2312 56.7108 12.1961 57.578 12.1961C58.1796 12.1961 58.6991 12.2156 59.1366 12.2547C59.5741 12.2859 59.9764 12.3562 60.3436 12.4656C60.7108 12.575 61.0116 12.7 61.246 12.8406C61.4882 12.9812 61.6991 13.1882 61.8788 13.4617C62.0663 13.7351 62.2069 14.0203 62.3007 14.3172C62.4022 14.6062 62.4843 14.9929 62.5468 15.4773C62.6093 15.9617 62.6483 16.4539 62.6639 16.9539C62.6796 17.4461 62.6874 18.0632 62.6874 18.8054ZM54.5663 17.739H60.3788C60.3632 16.739 60.3241 15.825 60.2616 14.9968C60.2304 14.5203 60.0233 14.2039 59.6405 14.0476C59.2655 13.8836 58.5741 13.8015 57.5663 13.8015C56.4491 13.8015 55.7421 13.864 55.4452 13.989C55.3124 14.0281 55.1952 14.0984 55.0936 14.2C54.9999 14.2937 54.9218 14.4304 54.8593 14.6101C54.7968 14.7898 54.746 14.9578 54.7069 15.114C54.6757 15.2703 54.6483 15.489 54.6249 15.7703C54.6093 16.0437 54.5975 16.2586 54.5897 16.4148C54.5819 16.5632 54.5741 16.7937 54.5663 17.1062C54.5663 17.4187 54.5663 17.6297 54.5663 17.739Z" fill="black"/>
<line x1="61.681" y1="27.6259" x2="52.7368" y2="27.6259" stroke="black" stroke-width="2"/>
<rect x="1.5058" y="1.41481" width="70.121" height="32.8615" rx="2" stroke="black" stroke-width="2"/>
</svg>
